<svg id="UW" data-name="University of Washington" xmlns="http://www.w3.org/2000/svg" viewBox="0 0 207.59 13.98" aria-labelledby="UW_Title" role="img"><title id="UW_Title">University of Washington</title><path d="M202.28,10.91V3.2l5.35,8.6h0.53V2.4L209,1.51h-2.69l0.89,0.89V8.94l-4.64-7.43h-2.13l0.87,0.89v8.52l-0.87.89h2.69Zm-8,.33c-2.06,0-2.77-2.46-2.77-4.59s0.72-4.59,2.77-4.59,2.79,2.46,2.79,4.59-0.72,4.59-2.79,4.59M190.2,6.66c0,2.62,1.48,5.37,4.12,5.37s4.13-2.76,4.13-5.37S197,1.28,194.32,1.28,190.2,4,190.2,6.66M185.55,11V2.28h2l1.1,1.1V1.51h-7.24V3.38l1.12-1.1h1.94V11l-0.8.82h2.76Zm-7.62-3.86v3.31a2.22,2.22,0,0,1-1.69.73c-2.28,0-3.44-2.3-3.44-4.52s1.45-4.52,3.44-4.52a1.57,1.57,0,0,1,1.26.49l1.13,1.12V2a4.6,4.6,0,0,0-2.39-.59,5,5,0,0,0-4.78,5.29c0,2.72,2,5.29,4.78,5.29a4.49,4.49,0,0,0,2.83-.75V7.13l0.8-.82h-2.76Zm-15.26,3.79V3.2l5.42,8.61h0.46V2.4l0.89-.89h-2.69l0.89,0.89V8.94L163,1.51h-2.13l0.87,0.89v8.52l-0.87.89h2.69Zm-7.38-9.4,0.82,0.82V11l-0.82.82h2.77L157.23,11V2.33l0.82-.82h-2.77Zm-9.14,5.13h4.33V11l-0.82.82h2.78L151.6,11V2.33l0.82-.82h-2.78l0.82,0.82V5.87h-4.33V2.33L147,1.51H144.2L145,2.33V11l-0.8.82H147L146.14,11V6.64Zm-4.64,2.3a2.28,2.28,0,0,0-1-2l-2.09-1.52a2.43,2.43,0,0,1-1.14-1.76,1.45,1.45,0,0,1,1.48-1.46,5.94,5.94,0,0,1,.66.12l0.91,1,1-1.43-2-.38a1.63,1.63,0,0,0-.49-0.05A2.59,2.59,0,0,0,136.17,4a3,3,0,0,0,1.33,2.36l2.11,1.52a1.75,1.75,0,0,1,.73,1.5,1.7,1.7,0,0,1-1.71,1.82,1.73,1.73,0,0,1-.72-0.14l-1-1.15-0.89,1.61,2,0.38a3.5,3.5,0,0,0,.61.07,3,3,0,0,0,2.86-3M130,3.8l1.41,4.26h-2.88ZM127.5,11l0.75-2.18h3.4L132.37,11l-0.8.8h2.91L133.66,11l-3.21-9.46h-0.52L126.66,11l-0.84.84h2.48Zm-10.95.8,2.36-7.45,2.29,7.45h0.52l3-9.47,0.84-.82h-2.48l0.8,0.8-2.18,7.12-2.11-7.12,0.8-.8h-2.91l0.82,0.82L118.49,3l-2,6.42-2.11-7.12,0.8-.8h-2.91l0.84,0.82L116,11.8h0.52ZM101.3,5.63L100.9,6l0,0.14h1.2c-0.19,1.31-.36,2.44-0.64,4.26-0.39,2.71-.72,3.67-1,3.9a0.53,0.53,0,0,1-.36.13,2,2,0,0,1-.64-0.22,0.34,0.34,0,0,0-.41.1,0.88,0.88,0,0,0-.25.49,0.58,0.58,0,0,0,.62.43,2.44,2.44,0,0,0,1.59-1c0.49-.61,1.16-2,1.72-5.29,0.1-.61.22-1.22,0.46-2.81L104.74,6l0.32-.38h-1.71c0.43-2.68.8-3.49,1.42-3.49a1.57,1.57,0,0,1,1.12.48,0.29,0.29,0,0,0,.41,0,0.86,0.86,0,0,0,.29-0.54,0.79,0.79,0,0,0-.87-0.61,3.22,3.22,0,0,0-2.33,1.22,6.55,6.55,0,0,0-1.15,3H101.3Zm-6.52,3.8c0-2.15,1.09-3.31,1.54-3.49a1.35,1.35,0,0,1,.48-0.12c0.72,0,1.14.55,1.14,1.67,0,1.88-1,3.59-1.57,3.8a1.43,1.43,0,0,1-.45.1c-0.81,0-1.15-.87-1.15-2m2.48-4.15a3.45,3.45,0,0,0-1.57.52,4.54,4.54,0,0,0-2.09,4,1.89,1.89,0,0,0,1.83,2.15,3.73,3.73,0,0,0,2.16-1A5.2,5.2,0,0,0,99.11,7.3a1.78,1.78,0,0,0-1.86-2m-16.8-3L83.05,7v4l-0.82.82H85L84.19,11V7l2.65-4.68,0.86-.84H85.15l0.8,0.8L83.78,6.17,81.73,2.31l0.8-.8H79.61ZM75,11V2.28h2l1.1,1.1V1.51H70.84V3.38L72,2.28h1.94V11l-0.8.82h2.76ZM65.69,1.51l0.82,0.82V11l-0.82.82h2.78L67.64,11V2.33l0.82-.82H65.69Zm-3,7.43a2.28,2.28,0,0,0-1-2L59.65,5.45a2.42,2.42,0,0,1-1.13-1.76A1.45,1.45,0,0,1,60,2.23a5.89,5.89,0,0,1,.66.12l0.91,1,1-1.43-2-.38A1.61,1.61,0,0,0,60,1.46,2.59,2.59,0,0,0,57.38,4a3,3,0,0,0,1.33,2.36l2.11,1.52a1.75,1.75,0,0,1,.73,1.5,1.7,1.7,0,0,1-1.71,1.82A1.72,1.72,0,0,1,59.13,11l-1-1.15-0.89,1.61,2,0.38a3.5,3.5,0,0,0,.61.07,3,3,0,0,0,2.86-3M49.48,2.28h1.26a2,2,0,0,1,2,2.06,1.93,1.93,0,0,1-2,1.9H49.48v-4Zm0,8.71V7H51l2.49,4.8h1.71L54.43,11l-2.3-4.22a2.7,2.7,0,0,0,1.94-2.41,3.08,3.08,0,0,0-3.33-2.84H47.54l0.8,0.82V11l-0.8.82H50.3Zm-4.62.82V9.92L43.76,11H40.63V6.71H43l0.82,0.82V5.12L43,5.94H40.63V2.28h3.12l1.1,1.1V1.51H38.7l0.8,0.82V11l-0.8.82h6.16ZM31.51,1.51H28.59l0.84,0.82,2.9,9.47h0.52l3-9.47,0.84-.82H34.19L35,2.31,32.82,9.43,30.7,2.31Zm-8,0,0.82,0.82V11l-0.82.82h2.77L25.47,11V2.33l0.82-.82H23.51Zm-9.58,9.4V3.2l5.52,8.6h0.36V2.4l0.89-.89H18L18.91,2.4V8.94L14.27,1.51H12.14L13,2.4v8.52l-0.87.89h2.69ZM2.35,9a3.07,3.07,0,0,0,3.19,3A3.21,3.21,0,0,0,8.87,9V2.4l0.87-.89H7.06L7.95,2.4V9a2.11,2.11,0,0,1-2.13,2.13A2.21,2.21,0,0,1,3.55,9V2.4l0.89-.89h-3L2.35,2.4V9Z" transform="translate(-1.46 -1.28)" fill="#fff"/></svg>